<svg xmlns="http://www.w3.org/2000/svg" viewBox="0 0 99.52 25.05">
    <defs>
        <style>.a{fill:#fff;}</style>
    </defs>
    <title>Artboard 1</title>
    <path class="a"
          d="M14.8,11.86a5,5,0,0,1,2.35-4.15,5,5,0,0,0-4-2.16c-1.68-.17-3.3,1-4.16,1s-2.19-1-3.61-1A5.31,5.31,0,0,0,.92,8.33C-1,11.68.43,16.6,2.28,19.3c.93,1.33,2,2.81,3.43,2.76s1.9-.89,3.58-.89,2.14.89,3.59.85,2.42-1.33,3.32-2.66a11.17,11.17,0,0,0,1.52-3.1A4.77,4.77,0,0,1,14.8,11.86Z"/>
    <path class="a"
          d="M12.07,3.77A4.85,4.85,0,0,0,13.18.28,5,5,0,0,0,10,1.94,4.66,4.66,0,0,0,8.83,5.3,4.08,4.08,0,0,0,12.07,3.77Z"/>
    <path class="a" d="M32.33,18.7H27.6l-1.14,3.36h-2L28.94,9.64H31l4.49,12.42h-2Zm-4.24-1.55h3.75L30,11.71h0Z"/>
    <path class="a"
          d="M45.19,17.53c0,2.82-1.51,4.62-3.78,4.62a3.06,3.06,0,0,1-2.85-1.58h0v4.48H36.66V13h1.8v1.5h0a3.23,3.23,0,0,1,2.89-1.6C43.67,12.91,45.19,14.73,45.19,17.53Zm-1.91,0c0-1.83-1-3-2.39-3s-2.38,1.24-2.38,3,1,3,2.38,3S43.28,19.38,43.28,17.53Z"/>
    <path class="a"
          d="M55.15,17.53c0,2.82-1.5,4.62-3.78,4.62a3,3,0,0,1-2.84-1.58h-.05v4.48H46.62V13h1.8v1.5h0a3.21,3.21,0,0,1,2.88-1.6C53.64,12.91,55.15,14.73,55.15,17.53Zm-1.91,0c0-1.83-.94-3-2.39-3s-2.37,1.24-2.37,3,1,3,2.37,3,2.39-1.2,2.39-3Z"/>
    <path class="a"
          d="M61.74,18.6c.14,1.23,1.33,2,3,2s2.69-.81,2.69-1.92c0-1-.68-1.54-2.29-1.94L63.5,16.4c-2.28-.55-3.34-1.62-3.34-3.35,0-2.14,1.87-3.62,4.52-3.62s4.43,1.48,4.49,3.62H67.29c-.11-1.24-1.14-2-2.63-2s-2.53.76-2.53,1.86c0,.88.66,1.39,2.26,1.79l1.37.34c2.55.6,3.6,1.62,3.6,3.44,0,2.32-1.85,3.78-4.79,3.78-2.75,0-4.61-1.42-4.73-3.67Z"/>
    <path class="a"
          d="M73.37,10.86V13H75.1v1.47H73.37v5c0,.77.35,1.13,1.11,1.13a4.26,4.26,0,0,0,.61,0V22a4.49,4.49,0,0,1-1,.09c-1.84,0-2.55-.69-2.55-2.44V14.48H70.19V13h1.32V10.86Z"/>
    <path class="a"
          d="M76.09,17.53c0-2.85,1.68-4.64,4.3-4.64s4.29,1.79,4.29,4.64S83,22.17,80.39,22.17,76.09,20.39,76.09,17.53Zm6.7,0c0-2-.9-3.1-2.4-3.1S78,15.59,78,17.53s.89,3.11,2.4,3.11,2.4-1.15,2.4-3.11Z"/>
    <path class="a"
          d="M86.21,13H88v1.54h0a2.16,2.16,0,0,1,2.18-1.64,2.65,2.65,0,0,1,.63.07v1.74a2.6,2.6,0,0,0-.83-.11,1.87,1.87,0,0,0-2,1.79,2.81,2.81,0,0,0,0,.29v5.37H86.21Z"/>
    <path class="a"
          d="M99.41,19.4c-.25,1.64-1.85,2.77-3.9,2.77-2.63,0-4.26-1.76-4.26-4.59s1.64-4.69,4.19-4.69,4.08,1.72,4.08,4.47V18h-6.4v.11a2.37,2.37,0,0,0,2.14,2.56h.3a2,2,0,0,0,2.09-1.27Zm-6.28-2.7h4.53a2.19,2.19,0,0,0-2.06-2.3h-.16a2.29,2.29,0,0,0-2.31,2.28Z"/>
    <path class="a"
          d="M27.85.29a2.65,2.65,0,0,1,2.83,2.45,3,3,0,0,1,0,.52c0,1.91-1,3-2.81,3H25.7v-6ZM26.63,5.42h1.12a1.89,1.89,0,0,0,2-1.76,2.55,2.55,0,0,0,0-.39,1.88,1.88,0,0,0-1.61-2.12,2.17,2.17,0,0,0-.36,0H26.63Z"/>
    <path class="a"
          d="M31.71,4A2.13,2.13,0,1,1,36,3.6,2.81,2.81,0,0,1,36,4a2.13,2.13,0,0,1-4.25.41A2.8,2.8,0,0,1,31.71,4ZM35,4c0-1-.44-1.55-1.21-1.55S32.63,3,32.63,4s.43,1.55,1.2,1.55S35,5,35,4Z"/>
    <path class="a"
          d="M41.6,6.26h-.92l-.93-3.32h-.07l-.93,3.32h-.91L36.6,1.76h.9l.81,3.43h.06l.93-3.43h.85l.93,3.43h.07L42,1.76h.89Z"/>
    <path class="a"
          d="M43.88,1.76h.86v.71h.06a1.35,1.35,0,0,1,1.35-.8A1.47,1.47,0,0,1,47.72,3a1.82,1.82,0,0,1,0,.33V6.26h-.89V3.57c0-.72-.32-1.08-1-1.08a1,1,0,0,0-1.08,1,.85.85,0,0,0,0,.16V6.26h-.89Z"/>
    <path class="a" d="M49.12,0H50V6.26h-.89Z"/>
    <path class="a"
          d="M51.25,4a2.13,2.13,0,1,1,4.24-.41,1.41,1.41,0,0,1,0,.41,2.13,2.13,0,1,1-4.24.41A1.41,1.41,0,0,1,51.25,4Zm3.33,0c0-1-.44-1.55-1.21-1.55S52.16,3,52.16,4s.44,1.55,1.21,1.55S54.58,5,54.58,4Z"/>
    <path class="a"
          d="M56.43,5c0-.81.6-1.28,1.67-1.35l1.22-.07V3.18c0-.47-.31-.74-.92-.74s-.84.18-.94.5H56.6c.09-.77.82-1.27,1.84-1.27s1.77.56,1.77,1.51V6.26h-.86V5.63h-.07a1.49,1.49,0,0,1-1.35.7,1.35,1.35,0,0,1-1.49-1.21A.57.57,0,0,1,56.43,5Zm2.89-.39V4.23l-1.1.07c-.62,0-.9.25-.9.65s.35.64.84.64a1.06,1.06,0,0,0,1.16-1Z"/>
    <path class="a"
          d="M61.38,4c0-1.43.73-2.33,1.87-2.33a1.5,1.5,0,0,1,1.38.79h.06V0h.89V6.26h-.85V5.55h-.07a1.55,1.55,0,0,1-1.41.78C62.1,6.34,61.38,5.43,61.38,4Zm.91,0c0,1,.45,1.53,1.21,1.53S64.71,5,64.71,4s-.47-1.53-1.21-1.53S62.29,3.06,62.29,4Z"/>
    <path class="a"
          d="M69.26,4a2.13,2.13,0,1,1,4.25-.41,2.81,2.81,0,0,1,0,.41,2.13,2.13,0,0,1-4.25.41A2.8,2.8,0,0,1,69.26,4Zm3.33,0c0-1-.44-1.55-1.21-1.55S70.18,3,70.18,4s.43,1.55,1.2,1.55S72.59,5,72.59,4Z"/>
    <path class="a"
          d="M74.7,1.76h.85v.71h.07A1.35,1.35,0,0,1,77,1.67,1.46,1.46,0,0,1,78.53,3a1.22,1.22,0,0,1,0,.33V6.26h-.89V3.57c0-.72-.31-1.08-1-1.08a1,1,0,0,0-1.08,1,.92.92,0,0,0,0,.16V6.26H74.7Z"/>
    <path class="a"
          d="M83.54.64V1.78h1v.75h-1V4.84c0,.47.2.68.64.68l.34,0v.74a3.91,3.91,0,0,1-.48,0c-1,0-1.39-.35-1.39-1.22V2.53h-.71V1.78h.71V.64Z"/>
    <path class="a"
          d="M85.73,0h.88V2.48h.07a1.42,1.42,0,0,1,1.38-.81,1.49,1.49,0,0,1,1.56,1.41,2.44,2.44,0,0,1,0,.27V6.26h-.89V3.57c0-.72-.34-1.08-1-1.08a1.05,1.05,0,0,0-1.14,1V6.26h-.89Z"/>
    <path class="a"
          d="M94.79,5a1.84,1.84,0,0,1-2,1.31,2,2,0,0,1-2.1-2,1.94,1.94,0,0,1,0-.34,2.07,2.07,0,0,1,1.78-2.33l.29,0c1.26,0,2,.86,2,2.27v.31H91.66v0a1.2,1.2,0,0,0,1.09,1.29h.11A1.06,1.06,0,0,0,93.93,5ZM91.66,3.59h2.28a1.09,1.09,0,0,0-1-1.16h-.1a1.15,1.15,0,0,0-1.17,1.13v0Z"/>
</svg>