<svg xmlns="http://www.w3.org/2000/svg" xmlns:xlink="http://www.w3.org/1999/xlink" viewBox="0 0 115.85 27.31">
    <defs>
        <style>
            .a,.b{fill:#fff;}.a{stroke:#fff;stroke-miterlimit:10;stroke-width:0.2px;}.c{fill:#5bc9f4;}.d{fill:url(#a);}.Graphic-Style-2{fill:url(#b);}.e{fill:url(#c);}
        </style>
        <linearGradient id="a" x1="21.12" y1="13.23" x2="-3.06" y2="13.23" gradientUnits="userSpaceOnUse">
            <stop offset="0" stop-color="#fee000"/>
            <stop offset="0.42" stop-color="#fbbc0e"/>
            <stop offset="0.78" stop-color="#faa418"/>
            <stop offset="1" stop-color="#f99b1c"/>
        </linearGradient>
        <linearGradient id="b" x1="14.84" y1="15.53" x2="-7.9" y2="38.27" gradientUnits="userSpaceOnUse">
            <stop offset="0" stop-color="#ef4547"/>
            <stop offset="1" stop-color="#c6186d"/>
        </linearGradient>
        <linearGradient id="c" x1="-8" y1="-11.9" x2="10.57" y2="6.67" gradientUnits="userSpaceOnUse">
            <stop offset="0" stop-color="#279e6f"/>
            <stop offset="0.04" stop-color="#2ba06f"/>
            <stop offset="0.46" stop-color="#53b26c"/>
            <stop offset="0.8" stop-color="#6bbd6a"/>
            <stop offset="1" stop-color="#74c169"/>
        </linearGradient>
    </defs>
    <title>Artboard 1</title>
    <path class="a"
          d="M37.45,3.48a2.69,2.69,0,0,1-.75,2,2.91,2.91,0,0,1-2.2.89,3,3,0,0,1-2.21-.9,3,3,0,0,1-.91-2.24A3,3,0,0,1,32.29,1,3,3,0,0,1,34.5.1a3,3,0,0,1,1.23.25,2.54,2.54,0,0,1,.94.67l-.53.53A2,2,0,0,0,34.5.84a2.28,2.28,0,0,0-1.64.66,2.3,2.3,0,0,0-.69,1.73A2.29,2.29,0,0,0,32.86,5a2.38,2.38,0,0,0,3.31,0,1.9,1.9,0,0,0,.51-1.21H34.5V3h2.9A2.49,2.49,0,0,1,37.45,3.48Z"/>
    <path class="a" d="M42.06,1H39.32v1.9h2.47v.72H39.32V5.5h2.74v.73H38.55v-6h3.51Z"/>
    <path class="a" d="M45.31,6.23h-.78V1H42.86V.23H47V1H45.31Z"/>
    <path class="a" d="M50,6.23v-6h.77v6Z"/>
    <path class="a" d="M54.16,6.23h-.78V1H51.71V.23h4.12V1H54.16Z"/>
    <path class="a"
          d="M63.64,5.46a3.11,3.11,0,0,1-4.4,0,3.09,3.09,0,0,1-.89-2.23A3.08,3.08,0,0,1,59.24,1a3.1,3.1,0,0,1,4.39,0,3.08,3.08,0,0,1,.89,2.22A3.08,3.08,0,0,1,63.64,5.46ZM59.81,5a2.18,2.18,0,0,0,1.63.67A2.21,2.21,0,0,0,63.07,5a2.38,2.38,0,0,0,.66-1.73,2.37,2.37,0,0,0-.66-1.72A2.21,2.21,0,0,0,61.44.84a2.18,2.18,0,0,0-1.63.67,2.34,2.34,0,0,0-.67,1.72A2.34,2.34,0,0,0,59.81,5Z"/>
    <path class="a" d="M65.6,6.23v-6h.94L69.46,4.9h0l0-1.15V.23h.77v6h-.81l-3-4.89h0l0,1.16V6.23Z"/>
    <path class="b"
          d="M58.16,15a4.25,4.25,0,1,0,4.27,4.25A4.19,4.19,0,0,0,58.16,15Zm0,6.83a2.46,2.46,0,0,1-2.4-2.58,2.41,2.41,0,1,1,4.8,0A2.46,2.46,0,0,1,58.16,21.82ZM48.85,15a4.25,4.25,0,1,0,4.27,4.25A4.19,4.19,0,0,0,48.85,15Zm0,6.83a2.46,2.46,0,0,1-2.4-2.58,2.41,2.41,0,1,1,4.8,0A2.46,2.46,0,0,1,48.85,21.82ZM37.77,16.29V18.1h4.32a3.82,3.82,0,0,1-1,2.27,4.44,4.44,0,0,1-3.34,1.32,4.8,4.8,0,0,1,0-9.6A4.65,4.65,0,0,1,41,13.37L42.3,12.1a6.31,6.31,0,0,0-4.53-1.82,6.7,6.7,0,0,0-6.7,6.61,6.69,6.69,0,0,0,6.7,6.6,6,6,0,0,0,4.61-1.85,6,6,0,0,0,1.56-4.22,5.46,5.46,0,0,0-.1-1.13Zm45.31,1.4A4,4,0,0,0,79.44,15a4,4,0,0,0-4,4.25,4.16,4.16,0,0,0,4.22,4.25,4.23,4.23,0,0,0,3.54-1.88l-1.45-1a2.42,2.42,0,0,1-2.09,1.18,2.16,2.16,0,0,1-2.06-1.29l5.68-2.35Zm-5.8,1.42a2.33,2.33,0,0,1,2.22-2.48,1.65,1.65,0,0,1,1.58.9Zm-4.62,4.12h1.86V10.73H72.66Zm-3.07-7.29h-.06A2.94,2.94,0,0,0,67.29,15a4.25,4.25,0,0,0,0,8.5,2.91,2.91,0,0,0,2.24-1h.06v.61c0,1.63-.87,2.49-2.27,2.49a2.35,2.35,0,0,1-2.14-1.51l-1.63.68a4.07,4.07,0,0,0,3.77,2.51c2.19,0,4.05-1.29,4.05-4.43V15.24H69.59Zm-2.14,5.88a2.44,2.44,0,0,1-2.37-2.56,2.47,2.47,0,0,1,2.37-2.6,2.4,2.4,0,0,1,2.27,2.6A2.38,2.38,0,0,1,67.45,21.82ZM91.83,10.73H87.36v12.5h1.87V18.5h2.6a4,4,0,0,0,4.1-3.88A4,4,0,0,0,91.83,10.73Zm0,6H89.23V12.47h2.65a2.15,2.15,0,1,1,0,4.29ZM103.41,15a3.51,3.51,0,0,0-3.33,1.92l1.66.69a1.77,1.77,0,0,1,1.71-.92,1.8,1.8,0,0,1,2,1.61v.13a4.18,4.18,0,0,0-2-.48c-1.78,0-3.6,1-3.6,2.81a2.89,2.89,0,0,0,3.1,2.75,2.62,2.62,0,0,0,2.38-1.22h.07v1h1.8V18.42C107.21,16.2,105.55,15,103.41,15Zm-.22,6.85c-.61,0-1.47-.3-1.47-1.06,0-1,1.07-1.33,2-1.33a3.26,3.26,0,0,1,1.71.42A2.26,2.26,0,0,1,103.19,21.81Zm10.58-6.57-2.14,5.42h-.06l-2.22-5.42h-2l3.33,7.57L108.77,27h1.94l5.14-11.79ZM97,23.23h1.87V10.73H97Z"/>
    <path class="c" d="M.46.78A2,2,0,0,0,0,2.19V24.28a2,2,0,0,0,.46,1.41l.08.07L12.91,13.38v-.29L.54.71Z"/>
    <path class="d" d="M17,17.51l-4.13-4.13v-.29L17,9l.1,0L22,11.79c1.4.8,1.4,2.09,0,2.89l-4.88,2.77Z"/>
    <path class="Graphic-Style-2" d="M17.14,17.45l-4.23-4.22L.46,25.69a1.65,1.65,0,0,0,2.08.06l14.6-8.3"/>
    <path class="e" d="M17.14,9,2.54.72A1.62,1.62,0,0,0,.46.78L12.91,13.23Z"/>
</svg>