<svg xmlns="http://www.w3.org/2000/svg" viewBox="0 0 87.07 82.49"><defs><style>.cls-1{fill:#1f4082;}.cls-2{fill:#fff;}</style></defs><g id="Layer_2" data-name="Layer 2"><g id="Layer_1-2" data-name="Layer 1"><path class="cls-1" d="M9.3,75.11c11.51-4.3,21.72-10.55,31.63-18-3.74-3.26-7.63-6-10.67-9.67a25.81,25.81,0,0,1-5.72-10.38c-1.15-4.79,0-9,3.79-12.13a10.19,10.19,0,0,1,12.13-1.09c2.3,1.32,3.87,1.4,6.21,0a10.15,10.15,0,0,1,12.13,1c3.83,3.11,5,7.32,3.83,12.11-1.34,5.56-4.69,9.93-8.81,13.63-14.47,13-31.19,22.56-48.55,31.08-1,.51-2.26,1.34-3.12.14s.17-2.16.86-3.11c2.93-4,5.77-8.14,8.78-12.12C13,65,13,64,11.5,62.49.92,52.1-3,39.69,2.47,25.66,8.42,10.47,20.85,2.8,36.48.58,51.36-1.52,65,2,76.06,12.67c14.73,14.2,14.67,35.5-.17,49.63-11.59,11-25.68,14-41.12,11.69C33.49,73.81,31,74,31.34,72c.42-2.46,2.66-1,4.15-.84,13.64,1.83,26.24-.49,36.9-9.7,15.48-13.37,15.52-34.37.29-48C56.52-.9,28.89-.41,13.35,14.59c-13.48,13-13.81,32.25-.26,45.15,3.58,3.41,4.14,5.66.78,9.16A57.74,57.74,0,0,0,9.3,75.11Z"/><path class="cls-2" d="M30.47,27.24c2.52-1.84,5.93-1.42,8.73,0,6.33,3.13,7.4-.14,12.52-1.49S61.06,30,59.9,35.46C58,44.23,51.44,49.39,44.58,54.21c-1,.71-1.87.21-2.7-.4C36.1,49.56,30.56,45.05,28,38,26.32,33.63,27.38,29.49,30.47,27.24Z"/></g></g></svg>